<?xml version="1.0" encoding="utf-8"?>
<!-- Generator: Adobe Illustrator 19.0.0, SVG Export Plug-In . SVG Version: 6.00 Build 0)  -->
<svg version="1.1" id="Layer_1" xmlns="http://www.w3.org/2000/svg" xmlns:xlink="http://www.w3.org/1999/xlink" x="0px" y="0px"
	 viewBox="0 0 250 250" style="enable-background:new 0 0 250 250;" xml:space="preserve">
<style type="text/css">
	.st0{display:none;}
	.st1{display:inline;}
	.st2{opacity:0.2;fill:url(#XMLID_140_);stroke:#00FF07;stroke-miterlimit:10;}
	.st3{fill:url(#XMLID_141_);stroke:#00FF07;stroke-miterlimit:10;}
	
		.st4{opacity:0.43;clip-path:url(#XMLID_142_);fill-rule:evenodd;clip-rule:evenodd;fill:url(#XMLID_143_);stroke:#00FF07;stroke-miterlimit:10;}
	.st5{opacity:0.34;clip-path:url(#XMLID_142_);fill:url(#XMLID_144_);stroke:#00FF07;stroke-miterlimit:10;}
	.st6{opacity:0.65;clip-path:url(#XMLID_142_);fill:url(#XMLID_145_);stroke:#00FF07;stroke-miterlimit:10;}
	.st7{opacity:0.65;clip-path:url(#XMLID_142_);fill:url(#XMLID_146_);stroke:#00FF07;stroke-miterlimit:10;}
	.st8{opacity:8.000000e-002;fill:url(#XMLID_148_);stroke:#00FF07;stroke-miterlimit:10;}
	.st9{opacity:5.000000e-002;fill:url(#XMLID_149_);stroke:#00FF07;stroke-miterlimit:10;}
	.st10{fill:url(#XMLID_150_);stroke:#00FF07;stroke-miterlimit:10;}
	.st11{fill:url(#XMLID_151_);stroke:#00FF07;stroke-miterlimit:10;}
	.st12{fill:#FFF7F1;stroke:#00FF07;stroke-miterlimit:10;}
	.st13{fill:url(#XMLID_152_);stroke:#00FF07;stroke-miterlimit:10;}
	.st14{fill:url(#XMLID_153_);stroke:#00FF07;stroke-miterlimit:10;}
	.st15{opacity:0.2;fill:url(#XMLID_154_);}
	.st16{fill:url(#XMLID_155_);}
	.st17{opacity:0.43;clip-path:url(#XMLID_156_);fill-rule:evenodd;clip-rule:evenodd;fill:url(#XMLID_157_);}
	.st18{opacity:0.34;clip-path:url(#XMLID_156_);fill:url(#XMLID_158_);}
	.st19{opacity:0.65;clip-path:url(#XMLID_156_);fill:url(#XMLID_159_);}
	.st20{opacity:0.65;clip-path:url(#XMLID_156_);fill:url(#XMLID_160_);}
	.st21{opacity:8.000000e-002;fill:url(#XMLID_162_);}
	.st22{opacity:5.000000e-002;fill:url(#XMLID_163_);}
	.st23{fill:url(#XMLID_164_);}
	.st24{clip-path:url(#XMLID_165_);fill:#F7F7F7;}
	.st25{opacity:0.2;clip-path:url(#XMLID_165_);fill:url(#XMLID_166_);}
	.st26{fill:url(#XMLID_167_);}
	.st27{fill:url(#XMLID_168_);}
	.st28{fill:url(#XMLID_169_);}
	.st29{fill:url(#XMLID_171_);}
	.st30{fill:#FFFFFF;}
	.st31{opacity:0.2;fill:url(#XMLID_172_);}
	.st32{fill:url(#XMLID_173_);}
	.st33{opacity:0.43;clip-path:url(#XMLID_174_);fill-rule:evenodd;clip-rule:evenodd;fill:url(#XMLID_175_);}
	.st34{opacity:0.34;clip-path:url(#XMLID_174_);fill:url(#XMLID_176_);}
	.st35{opacity:0.65;clip-path:url(#XMLID_174_);fill:url(#XMLID_177_);}
	.st36{opacity:0.65;clip-path:url(#XMLID_174_);fill:url(#XMLID_178_);}
	.st37{opacity:8.000000e-002;fill:url(#XMLID_180_);}
	.st38{opacity:5.000000e-002;fill:url(#XMLID_181_);}
	.st39{fill:url(#XMLID_182_);}
	.st40{fill:url(#XMLID_183_);}
	.st41{fill:url(#XMLID_184_);}
	.st42{fill:url(#XMLID_185_);}
	.st43{fill:url(#XMLID_186_);}
	.st44{fill:url(#XMLID_187_);}
	.st45{fill:url(#XMLID_188_);}
	.st46{fill:url(#XMLID_189_);}
	.st47{fill:url(#XMLID_190_);}
	.st48{fill:url(#XMLID_191_);}
	.st49{fill:url(#XMLID_192_);}
	.st50{opacity:0.2;fill:#FFFFFF;}
	.st51{opacity:0.6;fill:#FFFFFF;}
</style>
<g id="XMLID_2_" class="st0">
	<g id="XMLID_4_" class="st1">
		<linearGradient id="XMLID_140_" gradientUnits="userSpaceOnUse" x1="26.4273" y1="184.396" x2="337.931" y2="117.3301">
			<stop  offset="0" style="stop-color:#E7FFF8"/>
			<stop  offset="0.5856" style="stop-color:#7BE3FC"/>
			<stop  offset="1" style="stop-color:#2ED0FF"/>
		</linearGradient>
		<path id="XMLID_32_" class="st2" d="M225.5,66c0,0-37.9,63.1-17.7,90.9c30.6,42.1-1.3,82-98.7,76.4S197.9,60.9,225.5,66z"/>
		<linearGradient id="XMLID_141_" gradientUnits="userSpaceOnUse" x1="72.6116" y1="67.1947" x2="321.175" y2="322.0816">
			<stop  offset="0" style="stop-color:#E7FFF8"/>
			<stop  offset="1" style="stop-color:#2ED0FF"/>
		</linearGradient>
		<path id="XMLID_31_" class="st3" d="M98.6,127c88.3,4.1,45.4-62.9,71.2-85.1c23-19.8,77.5-0.9,50.9,36.9
			c-27.3,38.9-39.2,61.3-22.1,87.8s-2.3,59.5-82.4,61.3C56,229.2,18.5,204,23.3,170.7C26.3,150.3,57.2,125.1,98.6,127z"/>
		<g id="XMLID_24_">
			<defs>
				<path id="XMLID_25_" d="M98.6,127c88.3,4.1,45.4-62.9,71.2-85.1c23-19.8,77.5-0.9,50.9,36.9c-27.3,38.9-39.2,61.3-22.1,87.8
					s-2.3,59.5-82.4,61.3C56,229.2,18.5,204,23.3,170.7C26.3,150.3,57.2,125.1,98.6,127z"/>
			</defs>
			<clipPath id="XMLID_142_">
				<use xlink:href="#XMLID_25_"  style="overflow:visible;"/>
			</clipPath>
			<linearGradient id="XMLID_143_" gradientUnits="userSpaceOnUse" x1="127.7949" y1="119.8804" x2="135.1811" y2="339.7277">
				<stop  offset="0" style="stop-color:#A8F3F8"/>
				<stop  offset="1" style="stop-color:#6AB2FF"/>
			</linearGradient>
			<path id="XMLID_29_" class="st4" d="M28.7,227.9c3.6-18.8-3.1-32.5,134.7-29.5c154.5,3.3,11.7,53.3-14.5,50.2
				C122.7,245.6,22.1,262.4,28.7,227.9z"/>
			<linearGradient id="XMLID_144_" gradientUnits="userSpaceOnUse" x1="216.8994" y1="78.976" x2="224.6823" y2="199.6095">
				<stop  offset="0" style="stop-color:#A8F3F8"/>
				<stop  offset="1" style="stop-color:#6AB2FF"/>
			</linearGradient>
			<path id="XMLID_28_" class="st5" d="M214.9,39.3c0,0-62.1,48.2-23.7,110.6s63.4-112.8,63.4-112.8S223,31.8,214.9,39.3z"/>
			<linearGradient id="XMLID_145_" gradientUnits="userSpaceOnUse" x1="195.3474" y1="91.9676" x2="158.045" y2="2.003">
				<stop  offset="0" style="stop-color:#A8F3F8"/>
				<stop  offset="1" style="stop-color:#6AB2FF"/>
			</linearGradient>
			<path id="XMLID_27_" class="st6" d="M137-35.7c0,0-35.3,105.6,37.9,105.6c81.1,0-9.3-133.1-9.3-133.1S138.3-46.6,137-35.7z"/>
			<linearGradient id="XMLID_146_" gradientUnits="userSpaceOnUse" x1="86.0302" y1="188.5818" x2="44.1523" y2="87.5821">
				<stop  offset="0" style="stop-color:#A8F3F8"/>
				<stop  offset="1" style="stop-color:#6AB2FF"/>
			</linearGradient>
			<path id="XMLID_26_" class="st7" d="M22,42.8c0,0-29.8,95.9,39.9,118.2S50.7,15.3,50.7,15.3S23.3,31.8,22,42.8z"/>
			<use xlink:href="#XMLID_25_"  style="overflow:visible;fill:none;stroke:#00FF07;stroke-miterlimit:10;"/>
		</g>
		<g id="XMLID_22_">
			<defs>
				<path id="XMLID_23_" d="M98.6,127c88.3,4.1,45.4-62.9,71.2-85.1c23-19.8,77.5-0.9,50.9,36.9c-27.3,38.9-39.2,61.3-22.1,87.8
					s-2.3,59.5-82.4,61.3C56,229.2,18.5,204,23.3,170.7C26.3,150.3,57.2,125.1,98.6,127z"/>
			</defs>
			<clipPath id="XMLID_147_">
				<use xlink:href="#XMLID_23_"  style="overflow:visible;"/>
			</clipPath>
			<use xlink:href="#XMLID_23_"  style="overflow:visible;fill:none;stroke:#00FF07;stroke-miterlimit:10;"/>
		</g>
		
			<linearGradient id="XMLID_148_" gradientUnits="userSpaceOnUse" x1="384.6547" y1="334.9362" x2="502.075" y2="457.1414" gradientTransform="matrix(0.9719 -0.2352 0.2352 0.9719 -324.3078 -115.2547)">
			<stop  offset="0" style="stop-color:#F05F6F"/>
			<stop  offset="1" style="stop-color:#9F2C69"/>
		</linearGradient>
		<path id="XMLID_21_" class="st8" d="M116.8,113.5l-6.1,1.5c-2.4,0.6-4.9-0.9-5.5-3.4v0c-0.6-2.4,0.9-4.9,3.4-5.5l6.1-1.5
			c2.4-0.6,4.9,0.9,5.5,3.4v0C120.8,110.4,119.2,112.9,116.8,113.5z"/>
		
			<linearGradient id="XMLID_149_" gradientUnits="userSpaceOnUse" x1="1385.0482" y1="-1151.8014" x2="1594.2677" y2="-934.0562" gradientTransform="matrix(0.3259 -7.886282e-002 9.044807e-002 0.3738 -127.3507 620.8689)">
			<stop  offset="0" style="stop-color:#F05F6F"/>
			<stop  offset="1" style="stop-color:#9F2C69"/>
		</linearGradient>
		<path id="XMLID_20_" class="st9" d="M212.4,76.7l-3,0.7c-1.7,0.4-3.4-0.6-3.9-2.4v0c-0.4-1.7,0.6-3.4,2.4-3.9l3-0.7
			c1.7-0.4,3.4,0.6,3.9,2.4v0C215.2,74.6,214.1,76.3,212.4,76.7z"/>
		
			<linearGradient id="XMLID_150_" gradientUnits="userSpaceOnUse" x1="564.1167" y1="-556.8333" x2="733.8101" y2="-489.0826" gradientTransform="matrix(0.9376 -0.3476 0.3476 0.9376 -273.88 884.5099)">
			<stop  offset="0" style="stop-color:#F09A6F"/>
			<stop  offset="1" style="stop-color:#D62C69"/>
		</linearGradient>
		<path id="XMLID_17_" class="st10" d="M155.5,115.3c-16.6,6.2-27.1,21.8-27.4,38.5c-12.5-10.5-26.7-18.5-44.4-11.9
			c-21.8,8.1-32.9,32.3-24.8,54.1S91.2,229,113,220.9c5.7-2.1,15.8-7.3,22.2-19.1l10.7,4.9l-8.4-22.6l-22.6,8.4l9.9,4.5
			c-4.7,8.1-11.7,11.7-15.8,13.2c-15.9,5.9-33.6-2.2-39.5-18.1s2.2-33.6,18.1-39.5c16.6-6.2,29.2,5.8,43.8,19.7
			c14.6,13.9,31.2,29.7,53,22c0.1,0,0.2-0.1,0.4-0.1c0.1,0,0.1,0,0.2-0.1c0,0,0.1,0,0.1,0c0.1,0,0.2-0.1,0.3-0.1
			c21.4-8.3,32.2-32.3,24.3-53.9C201.6,118.4,177.3,107.2,155.5,115.3z M181,183.5c-14.6,5.3-26.3-4.8-39.4-17.2
			c-0.1-0.3-0.1-0.6-0.2-0.8c-5.9-15.9,2.2-33.6,18.1-39.5s33.6,2.2,39.5,18.1C204.8,159.9,196.8,177.6,181,183.5z"/>
		<g id="XMLID_5_">
			
				<linearGradient id="XMLID_151_" gradientUnits="userSpaceOnUse" x1="-79.2915" y1="674.0564" x2="26.6987" y2="674.0564" gradientTransform="matrix(0.9708 0.24 -0.24 0.9708 286.9306 -574.0081)">
				<stop  offset="0" style="stop-color:#F09A6F"/>
				<stop  offset="1" style="stop-color:#D62C69"/>
			</linearGradient>
			<path id="XMLID_16_" class="st11" d="M116.1,31.2l2.3-9.4c0.7-2.6-1-5.3-3.6-6l-1.6-0.4c-2.6-0.7-5.3,1-6,3.6l-2.3,9.4
				C78.5,24.8,53,41.7,46.4,68.2c-7,28.4,10.3,57.1,38.7,64.2c28.4,7,57.1-10.3,64.2-38.7C155.9,67.2,141.2,40.4,116.1,31.2z"/>
			<circle id="XMLID_15_" class="st12" cx="98.9" cy="80.7" r="43.3"/>
			<g id="XMLID_7_">
				
					<linearGradient id="XMLID_152_" gradientUnits="userSpaceOnUse" x1="-65.7716" y1="680.7357" x2="15.1361" y2="680.7357" gradientTransform="matrix(0.9708 0.24 -0.24 0.9708 286.9306 -574.0081)">
					<stop  offset="0" style="stop-color:#F09A6F"/>
					<stop  offset="1" style="stop-color:#D62C69"/>
				</linearGradient>
				<path id="XMLID_8_" class="st13" d="M104.9,120.6c-0.6-0.2-1.1-0.7-1.2-1.3c-0.1-0.9,0.5-1.7,1.4-1.9c1.4-0.2,2.9-0.6,4.3-1
					c0.9-0.3,1.8,0.2,2,1.1c0.3,0.9-0.2,1.8-1.1,2c-1.5,0.4-3.1,0.8-4.7,1.1C105.3,120.7,105.1,120.7,104.9,120.6z M71.7,110.3
					c-0.3-0.1-0.5-0.2-0.7-0.4c-1.1-1.1-2.2-2.3-3.3-3.5c-0.6-0.7-0.5-1.7,0.2-2.3c0.7-0.6,1.7-0.5,2.3,0.2c0.9,1.1,1.9,2.2,3,3.2
					c0.7,0.6,0.7,1.7,0,2.3C72.8,110.3,72.2,110.5,71.7,110.3z M134.9,96c-0.1,0-0.1,0-0.2-0.1c-0.8-0.3-1.3-1.3-1-2.1
					c0.5-1.4,1-2.8,1.3-4.2l0-0.1c0.2-0.9,1.1-1.4,2-1.2c0.9,0.2,1.4,1.1,1.2,2l0,0.1c-0.4,1.6-0.9,3.1-1.4,4.6
					C136.5,95.8,135.7,96.2,134.9,96z M60.9,73.1c-0.9-0.2-1.4-1.1-1.2-2l0,0c0.4-1.5,0.9-3.1,1.4-4.5c0.3-0.8,1.3-1.3,2.1-1
					c0.8,0.3,1.3,1.3,1,2.1c-0.5,1.4-0.9,2.8-1.3,4.2l0,0C62.6,72.7,61.7,73.3,60.9,73.1z M128.5,57.7c-0.3-0.1-0.6-0.3-0.9-0.6
					c-0.9-1.1-1.9-2.2-3-3.2c-0.7-0.6-0.7-1.7,0-2.3s1.7-0.7,2.3,0c1.1,1.1,2.2,2.3,3.3,3.5c0.6,0.7,0.5,1.7-0.2,2.3
					C129.5,57.7,129,57.8,128.5,57.7z M87.7,45.1c-0.5-0.1-1-0.6-1.2-1.1c-0.3-0.9,0.2-1.8,1.1-2c1.5-0.4,3.1-0.8,4.7-1.1
					c0.9-0.1,1.7,0.5,1.9,1.4c0.1,0.9-0.5,1.7-1.4,1.9c-1.4,0.2-2.9,0.6-4.3,1C88.3,45.1,88,45.1,87.7,45.1z"/>
			</g>
			
				<linearGradient id="XMLID_153_" gradientUnits="userSpaceOnUse" x1="5201.1265" y1="5113.4697" x2="5191.9429" y2="5179.4258" gradientTransform="matrix(-0.3946 0.2381 -0.3221 -0.5338 3813.4407 1601.3149)">
				<stop  offset="0" style="stop-color:#F09A6F"/>
				<stop  offset="1" style="stop-color:#D62C69"/>
			</linearGradient>
			<path id="XMLID_6_" class="st14" d="M102,80.4l11.5,22.1c0.3,0.5,0.2,1.1-0.1,1.3l0,0c-0.4,0.2-0.9,0-1.2-0.5L97.6,82.7
				C95.8,79.7,100.2,77.4,102,80.4z"/>
		</g>
	</g>
</g>
<g id="XMLID_34_" class="st0">
	<g id="XMLID_74_" class="st1">
		<linearGradient id="XMLID_154_" gradientUnits="userSpaceOnUse" x1="26.4316" y1="171.05" x2="337.9352" y2="103.9841">
			<stop  offset="0" style="stop-color:#E7FFF8"/>
			<stop  offset="0.5856" style="stop-color:#7BE3FC"/>
			<stop  offset="1" style="stop-color:#2ED0FF"/>
		</linearGradient>
		<path id="XMLID_87_" class="st15" d="M225.6,52.7c0,0-37.9,63.1-17.7,90.9c30.6,42.1-1.3,82-98.7,76.4S197.9,47.5,225.6,52.7z"/>
		<linearGradient id="XMLID_155_" gradientUnits="userSpaceOnUse" x1="72.6159" y1="53.8487" x2="321.1793" y2="308.7356">
			<stop  offset="0" style="stop-color:#E7FFF8"/>
			<stop  offset="1" style="stop-color:#2ED0FF"/>
		</linearGradient>
		<path id="XMLID_86_" class="st16" d="M98.6,113.6c88.3,4.1,45.4-62.9,71.2-85.1c23-19.8,77.5-0.9,50.9,36.9
			c-27.3,38.9-39.2,61.3-22.1,87.8s-2.3,59.5-82.4,61.3c-60.2,1.4-97.7-23.9-92.8-57.2C26.3,137,57.2,111.7,98.6,113.6z"/>
		<g id="XMLID_79_">
			<defs>
				<path id="XMLID_80_" d="M98.6,113.6c88.3,4.1,45.4-62.9,71.2-85.1c23-19.8,77.5-0.9,50.9,36.9c-27.3,38.9-39.2,61.3-22.1,87.8
					s-2.3,59.5-82.4,61.3c-60.2,1.4-97.7-23.9-92.8-57.2C26.3,137,57.2,111.7,98.6,113.6z"/>
			</defs>
			<clipPath id="XMLID_156_">
				<use xlink:href="#XMLID_80_"  style="overflow:visible;"/>
			</clipPath>
			<linearGradient id="XMLID_157_" gradientUnits="userSpaceOnUse" x1="127.7992" y1="106.5344" x2="135.1853" y2="326.3817">
				<stop  offset="0" style="stop-color:#A8F3F8"/>
				<stop  offset="1" style="stop-color:#6AB2FF"/>
			</linearGradient>
			<path id="XMLID_84_" class="st17" d="M28.7,214.6c3.6-18.8-3.1-32.5,134.7-29.5c154.5,3.3,11.7,53.3-14.5,50.2
				C122.7,232.2,22.1,249,28.7,214.6z"/>
			<linearGradient id="XMLID_158_" gradientUnits="userSpaceOnUse" x1="216.9037" y1="65.63" x2="224.6865" y2="186.2635">
				<stop  offset="0" style="stop-color:#A8F3F8"/>
				<stop  offset="1" style="stop-color:#6AB2FF"/>
			</linearGradient>
			<path id="XMLID_83_" class="st18" d="M214.9,26c0,0-62.1,48.2-23.7,110.6s63.4-112.8,63.4-112.8S223,18.5,214.9,26z"/>
			<linearGradient id="XMLID_159_" gradientUnits="userSpaceOnUse" x1="195.3517" y1="78.6216" x2="158.0493" y2="-11.343">
				<stop  offset="0" style="stop-color:#A8F3F8"/>
				<stop  offset="1" style="stop-color:#6AB2FF"/>
			</linearGradient>
			<path id="XMLID_82_" class="st19" d="M137.1-49c0,0-35.3,105.6,37.9,105.6c81.1,0-9.3-133.1-9.3-133.1S138.3-60,137.1-49z"/>
			<linearGradient id="XMLID_160_" gradientUnits="userSpaceOnUse" x1="86.0345" y1="175.2358" x2="44.1565" y2="74.2361">
				<stop  offset="0" style="stop-color:#A8F3F8"/>
				<stop  offset="1" style="stop-color:#6AB2FF"/>
			</linearGradient>
			<path id="XMLID_81_" class="st20" d="M22,29.4c0,0-29.8,95.9,39.9,118.2S50.7,1.9,50.7,1.9S23.3,18.5,22,29.4z"/>
		</g>
		<g id="XMLID_77_">
			<defs>
				<path id="XMLID_78_" d="M98.6,113.6c88.3,4.1,45.4-62.9,71.2-85.1c23-19.8,77.5-0.9,50.9,36.9c-27.3,38.9-39.2,61.3-22.1,87.8
					s-2.3,59.5-82.4,61.3c-60.2,1.4-97.7-23.9-92.8-57.2C26.3,137,57.2,111.7,98.6,113.6z"/>
			</defs>
			<clipPath id="XMLID_161_">
				<use xlink:href="#XMLID_78_"  style="overflow:visible;"/>
			</clipPath>
		</g>
		
			<linearGradient id="XMLID_162_" gradientUnits="userSpaceOnUse" x1="387.7978" y1="321.9656" x2="505.2181" y2="444.1707" gradientTransform="matrix(0.9719 -0.2352 0.2352 0.9719 -324.3078 -115.2547)">
			<stop  offset="0" style="stop-color:#F05F6F"/>
			<stop  offset="1" style="stop-color:#9F2C69"/>
		</linearGradient>
		<path id="XMLID_76_" class="st21" d="M116.8,100.2l-6.1,1.5c-2.4,0.6-4.9-0.9-5.5-3.4l0,0c-0.6-2.4,0.9-4.9,3.4-5.5l6.1-1.5
			c2.4-0.6,4.9,0.9,5.5,3.4v0C120.8,97.1,119.2,99.6,116.8,100.2z"/>
		
			<linearGradient id="XMLID_163_" gradientUnits="userSpaceOnUse" x1="1394.4219" y1="-1185.5293" x2="1603.6415" y2="-967.7841" gradientTransform="matrix(0.3259 -7.886282e-002 9.044807e-002 0.3738 -127.3507 620.8689)">
			<stop  offset="0" style="stop-color:#F05F6F"/>
			<stop  offset="1" style="stop-color:#9F2C69"/>
		</linearGradient>
		<path id="XMLID_75_" class="st22" d="M212.4,63.4l-3,0.7c-1.7,0.4-3.4-0.6-3.9-2.4v0c-0.4-1.7,0.6-3.4,2.4-3.9l3-0.7
			c1.7-0.4,3.4,0.6,3.9,2.4v0C215.2,61.3,214.2,63,212.4,63.4z"/>
	</g>
	<g id="XMLID_58_" class="st1">
		<linearGradient id="XMLID_164_" gradientUnits="userSpaceOnUse" x1="40.5452" y1="63.1124" x2="161.8551" y2="111.5458">
			<stop  offset="0" style="stop-color:#F09A6F"/>
			<stop  offset="1" style="stop-color:#D62C69"/>
		</linearGradient>
		<circle id="XMLID_73_" class="st23" cx="88.9" cy="82.4" r="55.5"/>
		<g id="XMLID_59_">
			<defs>
				<circle id="XMLID_60_" cx="88.9" cy="82.4" r="55.5"/>
			</defs>
			<clipPath id="XMLID_165_">
				<use xlink:href="#XMLID_60_"  style="overflow:visible;"/>
			</clipPath>
			<path id="XMLID_62_" class="st24" d="M113.9,114.4c3.2-8.9,5-19.5,5.1-30.5h25.3V81H119c-0.1-11.5-2.1-22.5-5.5-31.7
				c5.6-1.9,10.8-4.6,15.4-7.8c10.8-7.7,16.8-18,16.8-29.1s-6-21.3-16.8-29.1c-10.7-7.6-24.9-11.8-40-11.8s-29.3,4.2-40,11.8
				c-10.8,7.7-16.8,18-16.8,29.1s6,21.3,16.8,29.1c4.7,3.4,10.1,6.1,16,8c-3.4,9.2-5.3,20-5.4,31.5H33.5v2.9h25.9
				c0.1,10.9,1.9,21.3,5,30.2c-5.8,3.2-11.1,7.6-15.8,13c-10.7,12.5-16.6,29-16.6,46.6s5.9,34.1,16.6,46.6
				c10.7,12.5,25,19.4,40.2,19.4s29.5-6.9,40.2-19.4c10.7-12.5,16.6-29,16.6-46.6s-5.9-34.1-16.6-46.6
				C124.6,121.9,119.5,117.6,113.9,114.4z M111.3,113c-6.5-3.3-13.6-5.1-20.9-5.3V83.9h25.7C115.9,94.5,114.3,104.5,111.3,113z
				 M90.4,135.6v-24.9c7.1,0.2,13.8,2,19.9,5.1c-0.7,1.8-1.5,3.5-2.3,5.1c-5.1,9.9-11.7,15.4-18.7,15.4c-7,0-13.6-5.5-18.7-15.4
				c-0.9-1.7-1.7-3.5-2.4-5.4c6-2.9,12.5-4.7,19.4-4.9v24.9H90.4z M116.1,81H90.4V53.3c7.1-0.1,14-1.2,20.4-3.1
				C114.1,59.1,115.9,69.8,116.1,81z M90.4,28.5c6.6,0.6,12.8,6,17.6,15.4c0.6,1.2,1.1,2.4,1.7,3.6c-6,1.8-12.5,2.8-19.3,2.9V28.5z
				 M87.5,50.4c-6.6-0.1-12.9-1.1-18.7-2.7c0.6-1.3,1.1-2.5,1.8-3.8c4.7-9.1,10.6-14.5,17-15.3V50.4z M35,12.5
				c0-20.9,24.2-38,53.9-38s53.9,17,53.9,38c0,15-12.4,28-30.4,34.2c-0.6-1.4-1.2-2.7-1.9-4c-5.6-11-13.2-17-21.3-17
				s-15.7,6-21.3,17c-0.7,1.4-1.3,2.8-2,4.2C47.7,40.7,35,27.6,35,12.5z M67.7,50.4c6.2,1.8,12.9,2.8,19.8,2.9V81H62.4
				C62.5,69.8,64.3,59.3,67.7,50.4z M62.4,83.9h25.1v23.8c-7.1,0.2-14,1.9-20.4,5C64.1,104.3,62.5,94.3,62.4,83.9z M88.9,236.8
				c-29.7,0-53.9-28.3-53.9-63.1c0-25,12.5-46.6,30.5-56.8c0.7,1.9,1.5,3.6,2.4,5.3c5.6,11,13.2,17,21.3,17s15.7-6,21.3-17
				c0.8-1.6,1.6-3.3,2.3-5c17.8,10.3,30,31.8,30,56.5C142.8,208.5,118.6,236.8,88.9,236.8z"/>
			<linearGradient id="XMLID_166_" gradientUnits="userSpaceOnUse" x1="62.3162" y1="51.3297" x2="197.8674" y2="105.449">
				<stop  offset="0" style="stop-color:#FF002A"/>
				<stop  offset="1" style="stop-color:#940035"/>
			</linearGradient>
			<path id="XMLID_61_" class="st25" d="M66.8,29.5c0,0,69.5,11.3,51.3,100.1c0,0,82.6-25.4,54.3-66.3S96.7-4.1,66.8,29.5z"/>
		</g>
	</g>
	<g id="XMLID_51_" class="st1">
		<linearGradient id="XMLID_167_" gradientUnits="userSpaceOnUse" x1="136.1087" y1="159.9377" x2="237.302" y2="200.3395">
			<stop  offset="0" style="stop-color:#F09A6F"/>
			<stop  offset="1" style="stop-color:#D62C69"/>
		</linearGradient>
		<path id="XMLID_57_" class="st26" d="M198.3,229.5h-43.7c-5.4,0-9.9-4.4-9.9-9.9v-87.2c0-5.4,4.4-9.9,9.9-9.9h43.7
			c5.4,0,9.9,4.4,9.9,9.9v87.2C208.2,225,203.7,229.5,198.3,229.5z"/>
		<linearGradient id="XMLID_168_" gradientUnits="userSpaceOnUse" x1="147.3472" y1="117.327" x2="233.2175" y2="276.1006">
			<stop  offset="0" style="stop-color:#FFFFFF"/>
			<stop  offset="1" style="stop-color:#FFE8B1"/>
		</linearGradient>
		<path id="XMLID_56_" class="st27" d="M201.6,206.5h-50.3v-68.8c0-4.5,3.6-8.1,8.1-8.1h34.1c4.5,0,8.1,3.6,8.1,8.1V206.5z"/>
		
			<linearGradient id="XMLID_169_" gradientUnits="userSpaceOnUse" x1="8139.9995" y1="-1418.1589" x2="8167.8555" y2="-1407.0374" gradientTransform="matrix(-0.7071 -0.7071 0.7071 -0.7071 6936.8384 4929.8984)">
			<stop  offset="0" style="stop-color:#F09A6F"/>
			<stop  offset="1" style="stop-color:#D62C69"/>
		</linearGradient>
		<path id="XMLID_55_" class="st28" d="M170.5,155l15.6,9.1c2.5,1.4,2.6,5,0.2,6.5l-15.6,10.3c-2.6,1.7-6-0.1-6-3.2v-19.4
			C164.7,155.3,167.9,153.5,170.5,155z"/>
		<g id="XMLID_53_">
			<defs>
				<path id="XMLID_54_" d="M201.6,206.5h-50.3v-51.7c0-13.9,11.3-25.2,25.2-25.2h0c13.9,0,25.2,11.3,25.2,25.2V206.5z"/>
			</defs>
			<clipPath id="XMLID_170_">
				<use xlink:href="#XMLID_54_"  style="overflow:visible;"/>
			</clipPath>
		</g>
		<linearGradient id="XMLID_171_" gradientUnits="userSpaceOnUse" x1="172.3962" y1="211.1751" x2="184.5251" y2="233.6014">
			<stop  offset="0" style="stop-color:#FFFFFF"/>
			<stop  offset="1" style="stop-color:#FFE8B1"/>
		</linearGradient>
		<circle id="XMLID_52_" class="st29" cx="176.4" cy="218.6" r="6.3"/>
	</g>
	<g id="XMLID_43_" class="st1">
		<path id="XMLID_44_" class="st30" d="M187.5,111.9h-2.4c0-0.5,0-1,0-1.5l2.4-0.1C187.5,110.9,187.5,111.4,187.5,111.9z
			 M184.7,104.9c-0.3-3.4-1-6.8-1.8-10.1l2.3-0.6c0.9,3.4,1.5,7,1.9,10.5L184.7,104.9z M181.3,89.4c-1.1-3.2-2.5-6.4-4.1-9.5
			l2.1-1.1c1.7,3.1,3.1,6.4,4.2,9.8L181.3,89.4z M174.4,75.1c-1.8-2.9-3.9-5.7-6.1-8.3l1.8-1.6c2.3,2.7,4.5,5.6,6.4,8.6L174.4,75.1z
			 M164.5,62.8c-2.4-2.4-5.1-4.7-7.9-6.7l1.4-2c2.9,2.1,5.6,4.4,8.1,6.9L164.5,62.8z M152,53c-2.9-1.8-6-3.4-9.2-4.7l0.9-2.2
			c3.3,1.4,6.5,3,9.5,4.9L152,53z"/>
	</g>
	<g id="XMLID_35_" class="st1">
		<path id="XMLID_36_" class="st30" d="M120.9,197.3c-3.4,0-6.8-0.2-10.2-0.7l0.3-2.4c3.2,0.5,6.6,0.7,9.8,0.7l0.5,0l0,2.4
			L120.9,197.3z M105,195.5c-3.5-0.8-6.9-1.8-10.2-3.1l0.9-2.3c3.2,1.3,6.5,2.3,9.9,3L105,195.5z M89.6,190.1
			c-3.2-1.6-6.3-3.4-9.2-5.4l1.4-2c2.8,1.9,5.8,3.7,8.9,5.2L89.6,190.1z M75.7,181.3c-2.8-2.2-5.4-4.7-7.7-7.3l1.8-1.6
			c2.3,2.5,4.8,4.9,7.5,7.1L75.7,181.3z M64.3,169.5c-2.2-2.8-4.1-5.8-5.9-8.9l2.1-1.2c1.7,3,3.6,5.9,5.7,8.6L64.3,169.5z
			 M55.9,155.5c-0.2-0.5-0.4-0.9-0.6-1.4l2.2-1c0.2,0.5,0.4,0.9,0.6,1.4L55.9,155.5z"/>
	</g>
</g>
<g id="XMLID_88_">
	<g id="XMLID_97_">
		<g id="XMLID_126_">
			<linearGradient id="XMLID_172_" gradientUnits="userSpaceOnUse" x1="30.7771" y1="176.1167" x2="342.2808" y2="109.0507">
				<stop  offset="0" style="stop-color:#E7FFF8"/>
				<stop  offset="0.5856" style="stop-color:#7BE3FC"/>
				<stop  offset="1" style="stop-color:#2ED0FF"/>
			</linearGradient>
			<path id="XMLID_139_" class="st31" d="M229.9,57.8c0,0-37.9,63.1-17.7,90.9c30.6,42.1-1.3,82-98.7,76.4
				C16,219.3,202.2,52.6,229.9,57.8z"/>
			<linearGradient id="XMLID_173_" gradientUnits="userSpaceOnUse" x1="76.9615" y1="58.9154" x2="325.5248" y2="313.8022">
				<stop  offset="0" style="stop-color:#E7FFF8"/>
				<stop  offset="1" style="stop-color:#2ED0FF"/>
			</linearGradient>
			<path id="XMLID_138_" class="st32" d="M102.9,118.7c88.3,4.1,45.4-62.9,71.2-85.1c23-19.8,77.5-0.9,50.9,36.9
				c-27.3,38.9-39.2,61.3-22.1,87.8s-2.3,59.5-82.4,61.3c-60.2,1.4-97.7-23.9-92.8-57.2C30.7,142,61.6,116.8,102.9,118.7z"/>
			<g id="XMLID_131_">
				<defs>
					<path id="XMLID_132_" d="M102.9,118.7c88.3,4.1,45.4-62.9,71.2-85.1c23-19.8,77.5-0.9,50.9,36.9
						c-27.3,38.9-39.2,61.3-22.1,87.8s-2.3,59.5-82.4,61.3c-60.2,1.4-97.7-23.9-92.8-57.2C30.7,142,61.6,116.8,102.9,118.7z"/>
				</defs>
				<clipPath id="XMLID_174_">
					<use xlink:href="#XMLID_132_"  style="overflow:visible;"/>
				</clipPath>
				<linearGradient id="XMLID_175_" gradientUnits="userSpaceOnUse" x1="132.1447" y1="111.6011" x2="139.5309" y2="331.4483">
					<stop  offset="0" style="stop-color:#A8F3F8"/>
					<stop  offset="1" style="stop-color:#6AB2FF"/>
				</linearGradient>
				<path id="XMLID_136_" class="st33" d="M33,219.7c3.6-18.8-3.1-32.5,134.7-29.5c154.5,3.3,11.7,53.3-14.5,50.2
					C127.1,237.3,26.5,254.1,33,219.7z"/>
				<linearGradient id="XMLID_176_" gradientUnits="userSpaceOnUse" x1="221.2493" y1="70.6966" x2="229.0321" y2="191.3301">
					<stop  offset="0" style="stop-color:#A8F3F8"/>
					<stop  offset="1" style="stop-color:#6AB2FF"/>
				</linearGradient>
				<path id="XMLID_135_" class="st34" d="M219.2,31c0,0-62.1,48.2-23.7,110.6s63.4-112.8,63.4-112.8S227.3,23.5,219.2,31z"/>
				<linearGradient id="XMLID_177_" gradientUnits="userSpaceOnUse" x1="199.6973" y1="83.6883" x2="162.3949" y2="-6.2763">
					<stop  offset="0" style="stop-color:#A8F3F8"/>
					<stop  offset="1" style="stop-color:#6AB2FF"/>
				</linearGradient>
				<path id="XMLID_134_" class="st35" d="M141.4-44c0,0-35.3,105.6,37.9,105.6c81.1,0-9.3-133.1-9.3-133.1S142.7-54.9,141.4-44z"/>
				<linearGradient id="XMLID_178_" gradientUnits="userSpaceOnUse" x1="90.38" y1="180.3024" x2="48.5021" y2="79.3028">
					<stop  offset="0" style="stop-color:#A8F3F8"/>
					<stop  offset="1" style="stop-color:#6AB2FF"/>
				</linearGradient>
				<path id="XMLID_133_" class="st36" d="M26.4,34.5c0,0-29.8,95.9,39.9,118.2S55,7,55,7S27.7,23.5,26.4,34.5z"/>
			</g>
			<g id="XMLID_129_">
				<defs>
					<path id="XMLID_130_" d="M102.9,118.7c88.3,4.1,45.4-62.9,71.2-85.1c23-19.8,77.5-0.9,50.9,36.9
						c-27.3,38.9-39.2,61.3-22.1,87.8s-2.3,59.5-82.4,61.3c-60.2,1.4-97.7-23.9-92.8-57.2C30.7,142,61.6,116.8,102.9,118.7z"/>
				</defs>
				<clipPath id="XMLID_179_">
					<use xlink:href="#XMLID_130_"  style="overflow:visible;"/>
				</clipPath>
			</g>
			
				<linearGradient id="XMLID_180_" gradientUnits="userSpaceOnUse" x1="390.8298" y1="327.9122" x2="508.2501" y2="450.1173" gradientTransform="matrix(0.9719 -0.2352 0.2352 0.9719 -324.3078 -115.2547)">
				<stop  offset="0" style="stop-color:#F05F6F"/>
				<stop  offset="1" style="stop-color:#9F2C69"/>
			</linearGradient>
			<path id="XMLID_128_" class="st37" d="M121.2,105.2l-6.1,1.5c-2.4,0.6-4.9-0.9-5.5-3.4l0,0c-0.6-2.4,0.9-4.9,3.4-5.5l6.1-1.5
				c2.4-0.6,4.9,0.9,5.5,3.4l0,0C125.1,102.2,123.6,104.6,121.2,105.2z"/>
			
				<linearGradient id="XMLID_181_" gradientUnits="userSpaceOnUse" x1="1403.4644" y1="-1170.0663" x2="1612.684" y2="-952.321" gradientTransform="matrix(0.3259 -7.886282e-002 9.044807e-002 0.3738 -127.3507 620.8689)">
				<stop  offset="0" style="stop-color:#F05F6F"/>
				<stop  offset="1" style="stop-color:#9F2C69"/>
			</linearGradient>
			<path id="XMLID_127_" class="st38" d="M216.8,68.5l-3,0.7c-1.7,0.4-3.4-0.6-3.9-2.4l0,0c-0.4-1.7,0.6-3.4,2.4-3.9l3-0.7
				c1.7-0.4,3.4,0.6,3.9,2.4v0C219.6,66.3,218.5,68.1,216.8,68.5z"/>
		</g>
		<g id="XMLID_115_">
			<linearGradient id="XMLID_182_" gradientUnits="userSpaceOnUse" x1="53.626" y1="4.082" x2="141.8141" y2="148.9165">
				<stop  offset="0" style="stop-color:#F09A6F"/>
				<stop  offset="1" style="stop-color:#D62C69"/>
			</linearGradient>
			<rect id="XMLID_125_" x="57.7" y="36.6" class="st39" width="80.4" height="80.4"/>
			<g id="XMLID_119_">
				<linearGradient id="XMLID_183_" gradientUnits="userSpaceOnUse" x1="149.2962" y1="64.8784" x2="92.3597" y2="116.9692">
					<stop  offset="0" style="stop-color:#FFFFFF"/>
					<stop  offset="0.7842" style="stop-color:#FFEDC2"/>
					<stop  offset="1" style="stop-color:#FFE8B1"/>
				</linearGradient>
				<path id="XMLID_124_" class="st40" d="M98.4,85L98.4,85c-0.2-0.1-0.3-0.1-0.5,0c-0.2,0-0.3,0-0.5,0V85c-24.6,2.4-33,32-33,32h33
					h1h33C131.4,117,123,87.4,98.4,85z"/>
				<linearGradient id="XMLID_184_" gradientUnits="userSpaceOnUse" x1="97.0888" y1="85.1026" x2="97.5469" y2="96.0065">
					<stop  offset="0" style="stop-color:#A8F3F8"/>
					<stop  offset="1" style="stop-color:#6AB2FF"/>
				</linearGradient>
				<path id="XMLID_123_" class="st41" d="M85,89c0,0,3.8,7.9,12.9,6.9c9.1-1,11.6-7.7,11.6-7.7S97.5,80.6,85,89z"/>
				<linearGradient id="XMLID_185_" gradientUnits="userSpaceOnUse" x1="96.9502" y1="73.2162" x2="96.9502" y2="106.2573">
					<stop  offset="0" style="stop-color:#F09A6F"/>
					<stop  offset="1" style="stop-color:#D62C69"/>
				</linearGradient>
				<path id="XMLID_122_" class="st42" d="M91.2,76.8c0,0-1,8.1-3.4,11.5c0,0,3.8,5.7,10.5,4.8c6.7-1,7.7-5.3,7.7-5.3
					s-3.4-4.3-2.4-10.1L91.2,76.8z"/>
				<linearGradient id="XMLID_186_" gradientUnits="userSpaceOnUse" x1="118.6669" y1="28.0688" x2="54.9397" y2="81.282">
					<stop  offset="0" style="stop-color:#A8F3F8"/>
					<stop  offset="1" style="stop-color:#6AB2FF"/>
				</linearGradient>
				<path id="XMLID_121_" class="st43" d="M82.6,59.1c0,0-5.7-1.9-5.3-11s5.3-9.6,5.3-9.6s-3.4-10.1,4.8-10.1s23,2.9,27.3-2.9
					c0,0,5.7,6.7-2.4,12.5c0,0,9.6,7.9,1.5,21.9L82.6,59.1z"/>
				<linearGradient id="XMLID_187_" gradientUnits="userSpaceOnUse" x1="97.0593" y1="41.3436" x2="98.8089" y2="82.985">
					<stop  offset="0" style="stop-color:#FF826A"/>
					<stop  offset="1" style="stop-color:#FFCBAA"/>
				</linearGradient>
				<path id="XMLID_120_" class="st44" d="M113.7,61.5c0,11.9-11.3,21.3-16,21.5c-4.8,0.2-15.8-9.4-15.8-21.3c0-5.8,0.4-16,3.1-19.9
					c-0.7,0.4,6.7,3.3,12.9,2.4c4.4-0.6,9-0.9,12.9,1.9C114.2,48.6,113.7,55.5,113.7,61.5z"/>
			</g>
			<linearGradient id="XMLID_188_" gradientUnits="userSpaceOnUse" x1="54.2585" y1="120.4167" x2="137.5795" y2="139.0921">
				<stop  offset="0" style="stop-color:#F09A6F"/>
				<stop  offset="1" style="stop-color:#D62C69"/>
			</linearGradient>
			<rect id="XMLID_118_" x="57.7" y="117" class="st45" width="80.4" height="26.3"/>
			<linearGradient id="XMLID_189_" gradientUnits="userSpaceOnUse" x1="41.4378" y1="123.3363" x2="185.9504" y2="125.9111">
				<stop  offset="0" style="stop-color:#FF826A"/>
				<stop  offset="1" style="stop-color:#FFCBAA"/>
			</linearGradient>
			<rect id="XMLID_117_" x="64.4" y="122.3" class="st46" width="52.7" height="3.8"/>
			<linearGradient id="XMLID_190_" gradientUnits="userSpaceOnUse" x1="41.3184" y1="130.0381" x2="185.8309" y2="132.613">
				<stop  offset="0" style="stop-color:#FF826A"/>
				<stop  offset="1" style="stop-color:#FFCBAA"/>
			</linearGradient>
			<rect id="XMLID_116_" x="64.4" y="129" class="st47" width="52.7" height="3.8"/>
		</g>
		<g id="XMLID_106_">
			<linearGradient id="XMLID_191_" gradientUnits="userSpaceOnUse" x1="199.7462" y1="132.6441" x2="44.8354" y2="261.9972">
				<stop  offset="0" style="stop-color:#F09A6F"/>
				<stop  offset="1" style="stop-color:#D62C69"/>
			</linearGradient>
			<path id="XMLID_114_" class="st48" d="M188.4,139.1v-6.6c0-0.9-0.8-1.7-1.7-1.7h-3c-0.9,0-1.7,0.8-1.7,1.7v6.6H167v-6.6
				c0-0.9-0.8-1.7-1.7-1.7h-3c-0.9,0-1.7,0.8-1.7,1.7v6.6h-17.7v-6.6c0-0.9-0.8-1.7-1.7-1.7h-3c-0.9,0-1.7,0.8-1.7,1.7v6.6h-15.1
				v-6.6c0-0.9-0.8-1.7-1.7-1.7h-3c-0.9,0-1.7,0.8-1.7,1.7v6.6h-9v64.8h94.5v-64.8H188.4z"/>
			<linearGradient id="XMLID_192_" gradientUnits="userSpaceOnUse" x1="80.5287" y1="127.667" x2="206.3141" y2="218.8048">
				<stop  offset="0" style="stop-color:#F09A6F"/>
				<stop  offset="1" style="stop-color:#D62C69"/>
			</linearGradient>
			<rect id="XMLID_113_" x="106" y="156.8" class="st49" width="94.5" height="47.1"/>
			<rect id="XMLID_112_" x="122.5" y="156.8" class="st50" width="3.8" height="47.1"/>
			<rect id="XMLID_111_" x="149.6" y="156.8" class="st50" width="3.8" height="47.1"/>
			<rect id="XMLID_110_" x="174.5" y="156.8" class="st50" width="3.8" height="47.1"/>
			<rect id="XMLID_109_" x="106" y="170" class="st50" width="94.5" height="3.8"/>
			<rect id="XMLID_108_" x="106" y="187.7" class="st50" width="94.5" height="3.8"/>
			<path id="XMLID_107_" class="st51" d="M192,153h-76.1c-2.8,0-5.1-2.3-5.1-5.1v0c0-2.8,2.3-5.1,5.1-5.1H192c2.8,0,5.1,2.3,5.1,5.1
				v0C197.1,150.8,194.8,153,192,153z"/>
		</g>
		<g id="XMLID_98_">
			<path id="XMLID_99_" class="st30" d="M190.5,131.1h-2.4c0-0.5,0-1,0-1.5l2.4-0.1C190.5,130.1,190.5,130.6,190.5,131.1z
				 M187.8,124.1c-0.3-3.4-1-6.8-1.8-10.1l2.3-0.6c0.9,3.4,1.5,7,1.9,10.5L187.8,124.1z M184.4,108.6c-1.1-3.2-2.5-6.4-4.1-9.5
				l2.1-1.1c1.7,3.1,3.1,6.4,4.2,9.8L184.4,108.6z M177.5,94.4c-1.8-2.9-3.9-5.7-6.1-8.3l1.8-1.6c2.3,2.7,4.5,5.6,6.4,8.6
				L177.5,94.4z M167.6,82c-2.4-2.4-5.1-4.7-7.9-6.7l1.4-2c2.9,2.1,5.6,4.4,8.1,6.9L167.6,82z M155.1,72.3c-2.9-1.8-6-3.4-9.2-4.7
				l0.9-2.2c3.3,1.4,6.5,3,9.5,4.9L155.1,72.3z"/>
		</g>
	</g>
	<g id="XMLID_89_">
		<path id="XMLID_90_" class="st30" d="M86.6,187.6c-4.1-0.9-8.2-2.1-12.1-3.6l1.1-2.8c3.8,1.4,7.7,2.6,11.7,3.4l0.5,0.1l-0.6,2.9
			L86.6,187.6z M67.9,181.3c-4-1.9-7.8-4-11.5-6.5l1.7-2.5c3.5,2.4,7.3,4.5,11.1,6.3L67.9,181.3z M50.6,170.6
			c-3.5-2.7-6.7-5.7-9.7-8.9l2.2-2.1c2.9,3.1,6.1,6,9.4,8.6L50.6,170.6z M36.2,156.3c-2.7-3.4-5.2-7.1-7.4-10.9l2.6-1.5
			c2.1,3.7,4.5,7.2,7.2,10.5L36.2,156.3z M25.5,139.1c-1.9-4-3.5-8.1-4.7-12.3l2.9-0.9c1.2,4.1,2.8,8.1,4.6,11.9L25.5,139.1z
			 M19,119.9c-0.1-0.6-0.3-1.3-0.4-1.9l2.9-0.6c0.1,0.6,0.2,1.2,0.4,1.8L19,119.9z"/>
	</g>
</g>
</svg>
