<?xml version="1.0" encoding="utf-8"?>
<!-- Generator: Adobe Illustrator 19.0.0, SVG Export Plug-In . SVG Version: 6.00 Build 0)  -->
<svg version="1.1" id="Layer_1" xmlns="http://www.w3.org/2000/svg" xmlns:xlink="http://www.w3.org/1999/xlink" x="0px" y="0px"
	 viewBox="0 0 250 250" style="enable-background:new 0 0 250 250;" xml:space="preserve">
<style type="text/css">
	.st0{opacity:0.2;fill:url(#XMLID_33_);}
	.st1{fill:url(#XMLID_34_);}
	.st2{opacity:0.43;clip-path:url(#XMLID_35_);fill-rule:evenodd;clip-rule:evenodd;fill:url(#XMLID_36_);}
	.st3{opacity:0.34;clip-path:url(#XMLID_35_);fill:url(#XMLID_37_);}
	.st4{opacity:0.65;clip-path:url(#XMLID_35_);fill:url(#XMLID_38_);}
	.st5{opacity:0.65;clip-path:url(#XMLID_35_);fill:url(#XMLID_39_);}
	.st6{opacity:8.000000e-002;fill:url(#XMLID_41_);}
	.st7{opacity:5.000000e-002;fill:url(#XMLID_42_);}
	.st8{fill:url(#XMLID_43_);}
	.st9{fill:url(#XMLID_44_);}
	.st10{fill:#FFF7F1;}
	.st11{fill:url(#XMLID_45_);}
	.st12{fill:url(#XMLID_46_);}
</style>
<g id="XMLID_2_">
	<g id="XMLID_4_">
		<linearGradient id="XMLID_33_" gradientUnits="userSpaceOnUse" x1="26.4273" y1="184.396" x2="337.931" y2="117.3301">
			<stop  offset="0" style="stop-color:#E7FFF8"/>
			<stop  offset="0.5856" style="stop-color:#7BE3FC"/>
			<stop  offset="1" style="stop-color:#2ED0FF"/>
		</linearGradient>
		<path id="XMLID_32_" class="st0" d="M225.5,66c0,0-37.9,63.1-17.7,90.9c30.6,42.1-1.3,82-98.7,76.4S197.9,60.9,225.5,66z"/>
		<linearGradient id="XMLID_34_" gradientUnits="userSpaceOnUse" x1="72.6116" y1="67.1947" x2="321.175" y2="322.0816">
			<stop  offset="0" style="stop-color:#E7FFF8"/>
			<stop  offset="1" style="stop-color:#2ED0FF"/>
		</linearGradient>
		<path id="XMLID_31_" class="st1" d="M98.6,127c88.3,4.1,45.4-62.9,71.2-85.1c23-19.8,77.5-0.9,50.9,36.9
			c-27.3,38.9-39.2,61.3-22.1,87.8s-2.3,59.5-82.4,61.3C56,229.2,18.5,204,23.3,170.7C26.3,150.3,57.2,125.1,98.6,127z"/>
		<g id="XMLID_24_">
			<defs>
				<path id="XMLID_25_" d="M98.6,127c88.3,4.1,45.4-62.9,71.2-85.1c23-19.8,77.5-0.9,50.9,36.9c-27.3,38.9-39.2,61.3-22.1,87.8
					s-2.3,59.5-82.4,61.3C56,229.2,18.5,204,23.3,170.7C26.3,150.3,57.2,125.1,98.6,127z"/>
			</defs>
			<clipPath id="XMLID_35_">
				<use xlink:href="#XMLID_25_"  style="overflow:visible;"/>
			</clipPath>
			<linearGradient id="XMLID_36_" gradientUnits="userSpaceOnUse" x1="127.7949" y1="119.8804" x2="135.1811" y2="339.7277">
				<stop  offset="0" style="stop-color:#A8F3F8"/>
				<stop  offset="1" style="stop-color:#6AB2FF"/>
			</linearGradient>
			<path id="XMLID_29_" class="st2" d="M28.7,227.9c3.6-18.8-3.1-32.5,134.7-29.5c154.5,3.3,11.7,53.3-14.5,50.2
				C122.7,245.6,22.1,262.4,28.7,227.9z"/>
			<linearGradient id="XMLID_37_" gradientUnits="userSpaceOnUse" x1="216.8994" y1="78.976" x2="224.6823" y2="199.6095">
				<stop  offset="0" style="stop-color:#A8F3F8"/>
				<stop  offset="1" style="stop-color:#6AB2FF"/>
			</linearGradient>
			<path id="XMLID_28_" class="st3" d="M214.9,39.3c0,0-62.1,48.2-23.7,110.6s63.4-112.8,63.4-112.8S223,31.8,214.9,39.3z"/>
			<linearGradient id="XMLID_38_" gradientUnits="userSpaceOnUse" x1="195.3474" y1="91.9676" x2="158.045" y2="2.003">
				<stop  offset="0" style="stop-color:#A8F3F8"/>
				<stop  offset="1" style="stop-color:#6AB2FF"/>
			</linearGradient>
			<path id="XMLID_27_" class="st4" d="M137-35.7c0,0-35.3,105.6,37.9,105.6c81.1,0-9.3-133.1-9.3-133.1S138.3-46.6,137-35.7z"/>
			<linearGradient id="XMLID_39_" gradientUnits="userSpaceOnUse" x1="86.0302" y1="188.5818" x2="44.1523" y2="87.5821">
				<stop  offset="0" style="stop-color:#A8F3F8"/>
				<stop  offset="1" style="stop-color:#6AB2FF"/>
			</linearGradient>
			<path id="XMLID_26_" class="st5" d="M22,42.8c0,0-29.8,95.9,39.9,118.2S50.7,15.3,50.7,15.3S23.3,31.8,22,42.8z"/>
		</g>
		<g id="XMLID_22_">
			<defs>
				<path id="XMLID_23_" d="M98.6,127c88.3,4.1,45.4-62.9,71.2-85.1c23-19.8,77.5-0.9,50.9,36.9c-27.3,38.9-39.2,61.3-22.1,87.8
					s-2.3,59.5-82.4,61.3C56,229.2,18.5,204,23.3,170.7C26.3,150.3,57.2,125.1,98.6,127z"/>
			</defs>
			<clipPath id="XMLID_40_">
				<use xlink:href="#XMLID_23_"  style="overflow:visible;"/>
			</clipPath>
		</g>
		
			<linearGradient id="XMLID_41_" gradientUnits="userSpaceOnUse" x1="384.6547" y1="334.9362" x2="502.075" y2="457.1414" gradientTransform="matrix(0.9719 -0.2352 0.2352 0.9719 -324.3078 -115.2547)">
			<stop  offset="0" style="stop-color:#F05F6F"/>
			<stop  offset="1" style="stop-color:#9F2C69"/>
		</linearGradient>
		<path id="XMLID_21_" class="st6" d="M116.8,113.5l-6.1,1.5c-2.4,0.6-4.9-0.9-5.5-3.4v0c-0.6-2.4,0.9-4.9,3.4-5.5l6.1-1.5
			c2.4-0.6,4.9,0.9,5.5,3.4v0C120.8,110.4,119.2,112.9,116.8,113.5z"/>
		
			<linearGradient id="XMLID_42_" gradientUnits="userSpaceOnUse" x1="1385.0482" y1="-1151.8014" x2="1594.2677" y2="-934.0562" gradientTransform="matrix(0.3259 -7.886282e-002 9.044807e-002 0.3738 -127.3507 620.8689)">
			<stop  offset="0" style="stop-color:#F05F6F"/>
			<stop  offset="1" style="stop-color:#9F2C69"/>
		</linearGradient>
		<path id="XMLID_20_" class="st7" d="M212.4,76.7l-3,0.7c-1.7,0.4-3.4-0.6-3.9-2.4v0c-0.4-1.7,0.6-3.4,2.4-3.9l3-0.7
			c1.7-0.4,3.4,0.6,3.9,2.4v0C215.2,74.6,214.1,76.3,212.4,76.7z"/>
		
			<linearGradient id="XMLID_43_" gradientUnits="userSpaceOnUse" x1="564.1167" y1="-556.8333" x2="733.8101" y2="-489.0826" gradientTransform="matrix(0.9376 -0.3476 0.3476 0.9376 -273.88 884.5099)">
			<stop  offset="0" style="stop-color:#F09A6F"/>
			<stop  offset="1" style="stop-color:#D62C69"/>
		</linearGradient>
		<path id="XMLID_17_" class="st8" d="M155.5,115.3c-16.6,6.2-27.1,21.8-27.4,38.5c-12.5-10.5-26.7-18.5-44.4-11.9
			c-21.8,8.1-32.9,32.3-24.8,54.1S91.2,229,113,220.9c5.7-2.1,15.8-7.3,22.2-19.1l10.7,4.9l-8.4-22.6l-22.6,8.4l9.9,4.5
			c-4.7,8.1-11.7,11.7-15.8,13.2c-15.9,5.9-33.6-2.2-39.5-18.1s2.2-33.6,18.1-39.5c16.6-6.2,29.2,5.8,43.8,19.7
			c14.6,13.9,31.2,29.7,53,22c0.1,0,0.2-0.1,0.4-0.1c0.1,0,0.1,0,0.2-0.1c0,0,0.1,0,0.1,0c0.1,0,0.2-0.1,0.3-0.1
			c21.4-8.3,32.2-32.3,24.3-53.9C201.6,118.4,177.3,107.2,155.5,115.3z M181,183.5c-14.6,5.3-26.3-4.8-39.4-17.2
			c-0.1-0.3-0.1-0.6-0.2-0.8c-5.9-15.9,2.2-33.6,18.1-39.5s33.6,2.2,39.5,18.1C204.8,159.9,196.8,177.6,181,183.5z"/>
		<g id="XMLID_5_">
			
				<linearGradient id="XMLID_44_" gradientUnits="userSpaceOnUse" x1="-79.2915" y1="674.0564" x2="26.6987" y2="674.0564" gradientTransform="matrix(0.9708 0.24 -0.24 0.9708 286.9306 -574.0081)">
				<stop  offset="0" style="stop-color:#F09A6F"/>
				<stop  offset="1" style="stop-color:#D62C69"/>
			</linearGradient>
			<path id="XMLID_16_" class="st9" d="M116.1,31.2l2.3-9.4c0.7-2.6-1-5.3-3.6-6l-1.6-0.4c-2.6-0.7-5.3,1-6,3.6l-2.3,9.4
				C78.5,24.8,53,41.7,46.4,68.2c-7,28.4,10.3,57.1,38.7,64.2c28.4,7,57.1-10.3,64.2-38.7C155.9,67.2,141.2,40.4,116.1,31.2z"/>
			<circle id="XMLID_15_" class="st10" cx="98.9" cy="80.7" r="43.3"/>
			<g id="XMLID_7_">
				
					<linearGradient id="XMLID_45_" gradientUnits="userSpaceOnUse" x1="-65.7716" y1="680.7357" x2="15.1361" y2="680.7357" gradientTransform="matrix(0.9708 0.24 -0.24 0.9708 286.9306 -574.0081)">
					<stop  offset="0" style="stop-color:#F09A6F"/>
					<stop  offset="1" style="stop-color:#D62C69"/>
				</linearGradient>
				<path id="XMLID_8_" class="st11" d="M104.9,120.6c-0.6-0.2-1.1-0.7-1.2-1.3c-0.1-0.9,0.5-1.7,1.4-1.9c1.4-0.2,2.9-0.6,4.3-1
					c0.9-0.3,1.8,0.2,2,1.1c0.3,0.9-0.2,1.8-1.1,2c-1.5,0.4-3.1,0.8-4.7,1.1C105.3,120.7,105.1,120.7,104.9,120.6z M71.7,110.3
					c-0.3-0.1-0.5-0.2-0.7-0.4c-1.1-1.1-2.2-2.3-3.3-3.5c-0.6-0.7-0.5-1.7,0.2-2.3c0.7-0.6,1.7-0.5,2.3,0.2c0.9,1.1,1.9,2.2,3,3.2
					c0.7,0.6,0.7,1.7,0,2.3C72.8,110.3,72.2,110.5,71.7,110.3z M134.9,96c-0.1,0-0.1,0-0.2-0.1c-0.8-0.3-1.3-1.3-1-2.1
					c0.5-1.4,1-2.8,1.3-4.2l0-0.1c0.2-0.9,1.1-1.4,2-1.2c0.9,0.2,1.4,1.1,1.2,2l0,0.1c-0.4,1.6-0.9,3.1-1.4,4.6
					C136.5,95.8,135.7,96.2,134.9,96z M60.9,73.1c-0.9-0.2-1.4-1.1-1.2-2l0,0c0.4-1.5,0.9-3.1,1.4-4.5c0.3-0.8,1.3-1.3,2.1-1
					c0.8,0.3,1.3,1.3,1,2.1c-0.5,1.4-0.9,2.8-1.3,4.2l0,0C62.6,72.7,61.7,73.3,60.9,73.1z M128.5,57.7c-0.3-0.1-0.6-0.3-0.9-0.6
					c-0.9-1.1-1.9-2.2-3-3.2c-0.7-0.6-0.7-1.7,0-2.3s1.7-0.7,2.3,0c1.1,1.1,2.2,2.3,3.3,3.5c0.6,0.7,0.5,1.7-0.2,2.3
					C129.5,57.7,129,57.8,128.5,57.7z M87.7,45.1c-0.5-0.1-1-0.6-1.2-1.1c-0.3-0.9,0.2-1.8,1.1-2c1.5-0.4,3.1-0.8,4.7-1.1
					c0.9-0.1,1.7,0.5,1.9,1.4c0.1,0.9-0.5,1.7-1.4,1.9c-1.4,0.2-2.9,0.6-4.3,1C88.3,45.1,88,45.1,87.7,45.1z"/>
			</g>
			
				<linearGradient id="XMLID_46_" gradientUnits="userSpaceOnUse" x1="5201.1265" y1="5113.4697" x2="5191.9429" y2="5179.4258" gradientTransform="matrix(-0.3946 0.2381 -0.3221 -0.5338 3813.4407 1601.3149)">
				<stop  offset="0" style="stop-color:#F09A6F"/>
				<stop  offset="1" style="stop-color:#D62C69"/>
			</linearGradient>
			<path id="XMLID_6_" class="st12" d="M102,80.4l11.5,22.1c0.3,0.5,0.2,1.1-0.1,1.3l0,0c-0.4,0.2-0.9,0-1.2-0.5L97.6,82.7
				C95.8,79.7,100.2,77.4,102,80.4z"/>
		</g>
	</g>
</g>
</svg>
