<?xml version="1.0" encoding="utf-8"?>
<!-- Generator: Adobe Illustrator 19.0.0, SVG Export Plug-In . SVG Version: 6.00 Build 0)  -->
<svg version="1.1" id="Layer_1" xmlns="http://www.w3.org/2000/svg" xmlns:xlink="http://www.w3.org/1999/xlink" x="0px" y="0px"
	 viewBox="0 0 250 250" style="enable-background:new 0 0 250 250;" xml:space="preserve">
<style type="text/css">
	.st0{display:none;}
	.st1{display:inline;}
	.st2{opacity:0.2;fill:url(#XMLID_88_);stroke:#00FF07;stroke-miterlimit:10;}
	.st3{fill:url(#XMLID_89_);stroke:#00FF07;stroke-miterlimit:10;}
	
		.st4{opacity:0.43;clip-path:url(#XMLID_90_);fill-rule:evenodd;clip-rule:evenodd;fill:url(#XMLID_91_);stroke:#00FF07;stroke-miterlimit:10;}
	.st5{opacity:0.34;clip-path:url(#XMLID_90_);fill:url(#XMLID_92_);stroke:#00FF07;stroke-miterlimit:10;}
	.st6{opacity:0.65;clip-path:url(#XMLID_90_);fill:url(#XMLID_93_);stroke:#00FF07;stroke-miterlimit:10;}
	.st7{opacity:0.65;clip-path:url(#XMLID_90_);fill:url(#XMLID_94_);stroke:#00FF07;stroke-miterlimit:10;}
	.st8{opacity:8.000000e-002;fill:url(#XMLID_96_);stroke:#00FF07;stroke-miterlimit:10;}
	.st9{opacity:5.000000e-002;fill:url(#XMLID_97_);stroke:#00FF07;stroke-miterlimit:10;}
	.st10{fill:url(#XMLID_98_);stroke:#00FF07;stroke-miterlimit:10;}
	.st11{fill:url(#XMLID_99_);stroke:#00FF07;stroke-miterlimit:10;}
	.st12{fill:#FFF7F1;stroke:#00FF07;stroke-miterlimit:10;}
	.st13{fill:url(#XMLID_100_);stroke:#00FF07;stroke-miterlimit:10;}
	.st14{fill:url(#XMLID_101_);stroke:#00FF07;stroke-miterlimit:10;}
	.st15{opacity:0.2;fill:url(#XMLID_102_);}
	.st16{fill:url(#XMLID_103_);}
	.st17{opacity:0.43;clip-path:url(#XMLID_104_);fill-rule:evenodd;clip-rule:evenodd;fill:url(#XMLID_105_);}
	.st18{opacity:0.34;clip-path:url(#XMLID_104_);fill:url(#XMLID_106_);}
	.st19{opacity:0.65;clip-path:url(#XMLID_104_);fill:url(#XMLID_107_);}
	.st20{opacity:0.65;clip-path:url(#XMLID_104_);fill:url(#XMLID_108_);}
	.st21{opacity:8.000000e-002;fill:url(#XMLID_110_);}
	.st22{opacity:5.000000e-002;fill:url(#XMLID_111_);}
	.st23{fill:url(#XMLID_112_);}
	.st24{clip-path:url(#XMLID_113_);fill:#F7F7F7;}
	.st25{opacity:0.2;clip-path:url(#XMLID_113_);fill:url(#XMLID_114_);}
	.st26{fill:url(#XMLID_115_);}
	.st27{fill:url(#XMLID_116_);}
	.st28{fill:url(#XMLID_117_);}
	.st29{fill:url(#XMLID_119_);}
	.st30{fill:#FFFFFF;}
</style>
<g id="XMLID_2_" class="st0">
	<g id="XMLID_4_" class="st1">
		<linearGradient id="XMLID_88_" gradientUnits="userSpaceOnUse" x1="26.4273" y1="184.396" x2="337.931" y2="117.3301">
			<stop  offset="0" style="stop-color:#E7FFF8"/>
			<stop  offset="0.5856" style="stop-color:#7BE3FC"/>
			<stop  offset="1" style="stop-color:#2ED0FF"/>
		</linearGradient>
		<path id="XMLID_32_" class="st2" d="M225.5,66c0,0-37.9,63.1-17.7,90.9c30.6,42.1-1.3,82-98.7,76.4S197.9,60.9,225.5,66z"/>
		<linearGradient id="XMLID_89_" gradientUnits="userSpaceOnUse" x1="72.6116" y1="67.1947" x2="321.175" y2="322.0816">
			<stop  offset="0" style="stop-color:#E7FFF8"/>
			<stop  offset="1" style="stop-color:#2ED0FF"/>
		</linearGradient>
		<path id="XMLID_31_" class="st3" d="M98.6,127c88.3,4.1,45.4-62.9,71.2-85.1c23-19.8,77.5-0.9,50.9,36.9
			c-27.3,38.9-39.2,61.3-22.1,87.8s-2.3,59.5-82.4,61.3C56,229.2,18.5,204,23.3,170.7C26.3,150.3,57.2,125.1,98.6,127z"/>
		<g id="XMLID_24_">
			<defs>
				<path id="XMLID_25_" d="M98.6,127c88.3,4.1,45.4-62.9,71.2-85.1c23-19.8,77.5-0.9,50.9,36.9c-27.3,38.9-39.2,61.3-22.1,87.8
					s-2.3,59.5-82.4,61.3C56,229.2,18.5,204,23.3,170.7C26.3,150.3,57.2,125.1,98.6,127z"/>
			</defs>
			<clipPath id="XMLID_90_">
				<use xlink:href="#XMLID_25_"  style="overflow:visible;"/>
			</clipPath>
			<linearGradient id="XMLID_91_" gradientUnits="userSpaceOnUse" x1="127.7949" y1="119.8804" x2="135.1811" y2="339.7277">
				<stop  offset="0" style="stop-color:#A8F3F8"/>
				<stop  offset="1" style="stop-color:#6AB2FF"/>
			</linearGradient>
			<path id="XMLID_29_" class="st4" d="M28.7,227.9c3.6-18.8-3.1-32.5,134.7-29.5c154.5,3.3,11.7,53.3-14.5,50.2
				C122.7,245.6,22.1,262.4,28.7,227.9z"/>
			<linearGradient id="XMLID_92_" gradientUnits="userSpaceOnUse" x1="216.8994" y1="78.976" x2="224.6823" y2="199.6095">
				<stop  offset="0" style="stop-color:#A8F3F8"/>
				<stop  offset="1" style="stop-color:#6AB2FF"/>
			</linearGradient>
			<path id="XMLID_28_" class="st5" d="M214.9,39.3c0,0-62.1,48.2-23.7,110.6s63.4-112.8,63.4-112.8S223,31.8,214.9,39.3z"/>
			<linearGradient id="XMLID_93_" gradientUnits="userSpaceOnUse" x1="195.3474" y1="91.9676" x2="158.045" y2="2.003">
				<stop  offset="0" style="stop-color:#A8F3F8"/>
				<stop  offset="1" style="stop-color:#6AB2FF"/>
			</linearGradient>
			<path id="XMLID_27_" class="st6" d="M137-35.7c0,0-35.3,105.6,37.9,105.6c81.1,0-9.3-133.1-9.3-133.1S138.3-46.6,137-35.7z"/>
			<linearGradient id="XMLID_94_" gradientUnits="userSpaceOnUse" x1="86.0302" y1="188.5818" x2="44.1523" y2="87.5821">
				<stop  offset="0" style="stop-color:#A8F3F8"/>
				<stop  offset="1" style="stop-color:#6AB2FF"/>
			</linearGradient>
			<path id="XMLID_26_" class="st7" d="M22,42.8c0,0-29.8,95.9,39.9,118.2S50.7,15.3,50.7,15.3S23.3,31.8,22,42.8z"/>
			<use xlink:href="#XMLID_25_"  style="overflow:visible;fill:none;stroke:#00FF07;stroke-miterlimit:10;"/>
		</g>
		<g id="XMLID_22_">
			<defs>
				<path id="XMLID_23_" d="M98.6,127c88.3,4.1,45.4-62.9,71.2-85.1c23-19.8,77.5-0.9,50.9,36.9c-27.3,38.9-39.2,61.3-22.1,87.8
					s-2.3,59.5-82.4,61.3C56,229.2,18.5,204,23.3,170.7C26.3,150.3,57.2,125.1,98.6,127z"/>
			</defs>
			<clipPath id="XMLID_95_">
				<use xlink:href="#XMLID_23_"  style="overflow:visible;"/>
			</clipPath>
			<use xlink:href="#XMLID_23_"  style="overflow:visible;fill:none;stroke:#00FF07;stroke-miterlimit:10;"/>
		</g>
		
			<linearGradient id="XMLID_96_" gradientUnits="userSpaceOnUse" x1="384.6547" y1="334.9362" x2="502.075" y2="457.1414" gradientTransform="matrix(0.9719 -0.2352 0.2352 0.9719 -324.3078 -115.2547)">
			<stop  offset="0" style="stop-color:#F05F6F"/>
			<stop  offset="1" style="stop-color:#9F2C69"/>
		</linearGradient>
		<path id="XMLID_21_" class="st8" d="M116.8,113.5l-6.1,1.5c-2.4,0.6-4.9-0.9-5.5-3.4v0c-0.6-2.4,0.9-4.9,3.4-5.5l6.1-1.5
			c2.4-0.6,4.9,0.9,5.5,3.4v0C120.8,110.4,119.2,112.9,116.8,113.5z"/>
		
			<linearGradient id="XMLID_97_" gradientUnits="userSpaceOnUse" x1="1385.0482" y1="-1151.8014" x2="1594.2677" y2="-934.0562" gradientTransform="matrix(0.3259 -7.886282e-002 9.044807e-002 0.3738 -127.3507 620.8689)">
			<stop  offset="0" style="stop-color:#F05F6F"/>
			<stop  offset="1" style="stop-color:#9F2C69"/>
		</linearGradient>
		<path id="XMLID_20_" class="st9" d="M212.4,76.7l-3,0.7c-1.7,0.4-3.4-0.6-3.9-2.4v0c-0.4-1.7,0.6-3.4,2.4-3.9l3-0.7
			c1.7-0.4,3.4,0.6,3.9,2.4v0C215.2,74.6,214.1,76.3,212.4,76.7z"/>
		
			<linearGradient id="XMLID_98_" gradientUnits="userSpaceOnUse" x1="564.1167" y1="-556.8333" x2="733.8101" y2="-489.0826" gradientTransform="matrix(0.9376 -0.3476 0.3476 0.9376 -273.88 884.5099)">
			<stop  offset="0" style="stop-color:#F09A6F"/>
			<stop  offset="1" style="stop-color:#D62C69"/>
		</linearGradient>
		<path id="XMLID_17_" class="st10" d="M155.5,115.3c-16.6,6.2-27.1,21.8-27.4,38.5c-12.5-10.5-26.7-18.5-44.4-11.9
			c-21.8,8.1-32.9,32.3-24.8,54.1S91.2,229,113,220.9c5.7-2.1,15.8-7.3,22.2-19.1l10.7,4.9l-8.4-22.6l-22.6,8.4l9.9,4.5
			c-4.7,8.1-11.7,11.7-15.8,13.2c-15.9,5.9-33.6-2.2-39.5-18.1s2.2-33.6,18.1-39.5c16.6-6.2,29.2,5.8,43.8,19.7
			c14.6,13.9,31.2,29.7,53,22c0.1,0,0.2-0.1,0.4-0.1c0.1,0,0.1,0,0.2-0.1c0,0,0.1,0,0.1,0c0.1,0,0.2-0.1,0.3-0.1
			c21.4-8.3,32.2-32.3,24.3-53.9C201.6,118.4,177.3,107.2,155.5,115.3z M181,183.5c-14.6,5.3-26.3-4.8-39.4-17.2
			c-0.1-0.3-0.1-0.6-0.2-0.8c-5.9-15.9,2.2-33.6,18.1-39.5s33.6,2.2,39.5,18.1C204.8,159.9,196.8,177.6,181,183.5z"/>
		<g id="XMLID_5_">
			
				<linearGradient id="XMLID_99_" gradientUnits="userSpaceOnUse" x1="-79.2915" y1="674.0564" x2="26.6987" y2="674.0564" gradientTransform="matrix(0.9708 0.24 -0.24 0.9708 286.9306 -574.0081)">
				<stop  offset="0" style="stop-color:#F09A6F"/>
				<stop  offset="1" style="stop-color:#D62C69"/>
			</linearGradient>
			<path id="XMLID_16_" class="st11" d="M116.1,31.2l2.3-9.4c0.7-2.6-1-5.3-3.6-6l-1.6-0.4c-2.6-0.7-5.3,1-6,3.6l-2.3,9.4
				C78.5,24.8,53,41.7,46.4,68.2c-7,28.4,10.3,57.1,38.7,64.2c28.4,7,57.1-10.3,64.2-38.7C155.9,67.2,141.2,40.4,116.1,31.2z"/>
			<circle id="XMLID_15_" class="st12" cx="98.9" cy="80.7" r="43.3"/>
			<g id="XMLID_7_">
				
					<linearGradient id="XMLID_100_" gradientUnits="userSpaceOnUse" x1="-65.7716" y1="680.7357" x2="15.1361" y2="680.7357" gradientTransform="matrix(0.9708 0.24 -0.24 0.9708 286.9306 -574.0081)">
					<stop  offset="0" style="stop-color:#F09A6F"/>
					<stop  offset="1" style="stop-color:#D62C69"/>
				</linearGradient>
				<path id="XMLID_8_" class="st13" d="M104.9,120.6c-0.6-0.2-1.1-0.7-1.2-1.3c-0.1-0.9,0.5-1.7,1.4-1.9c1.4-0.2,2.9-0.6,4.3-1
					c0.9-0.3,1.8,0.2,2,1.1c0.3,0.9-0.2,1.8-1.1,2c-1.5,0.4-3.1,0.8-4.7,1.1C105.3,120.7,105.1,120.7,104.9,120.6z M71.7,110.3
					c-0.3-0.1-0.5-0.2-0.7-0.4c-1.1-1.1-2.2-2.3-3.3-3.5c-0.6-0.7-0.5-1.7,0.2-2.3c0.7-0.6,1.7-0.5,2.3,0.2c0.9,1.1,1.9,2.2,3,3.2
					c0.7,0.6,0.7,1.7,0,2.3C72.8,110.3,72.2,110.5,71.7,110.3z M134.9,96c-0.1,0-0.1,0-0.2-0.1c-0.8-0.3-1.3-1.3-1-2.1
					c0.5-1.4,1-2.8,1.3-4.2l0-0.1c0.2-0.9,1.1-1.4,2-1.2c0.9,0.2,1.4,1.1,1.2,2l0,0.1c-0.4,1.6-0.9,3.1-1.4,4.6
					C136.5,95.8,135.7,96.2,134.9,96z M60.9,73.1c-0.9-0.2-1.4-1.1-1.2-2l0,0c0.4-1.5,0.9-3.1,1.4-4.5c0.3-0.8,1.3-1.3,2.1-1
					c0.8,0.3,1.3,1.3,1,2.1c-0.5,1.4-0.9,2.8-1.3,4.2l0,0C62.6,72.7,61.7,73.3,60.9,73.1z M128.5,57.7c-0.3-0.1-0.6-0.3-0.9-0.6
					c-0.9-1.1-1.9-2.2-3-3.2c-0.7-0.6-0.7-1.7,0-2.3s1.7-0.7,2.3,0c1.1,1.1,2.2,2.3,3.3,3.5c0.6,0.7,0.5,1.7-0.2,2.3
					C129.5,57.7,129,57.8,128.5,57.7z M87.7,45.1c-0.5-0.1-1-0.6-1.2-1.1c-0.3-0.9,0.2-1.8,1.1-2c1.5-0.4,3.1-0.8,4.7-1.1
					c0.9-0.1,1.7,0.5,1.9,1.4c0.1,0.9-0.5,1.7-1.4,1.9c-1.4,0.2-2.9,0.6-4.3,1C88.3,45.1,88,45.1,87.7,45.1z"/>
			</g>
			
				<linearGradient id="XMLID_101_" gradientUnits="userSpaceOnUse" x1="5201.1265" y1="5113.4697" x2="5191.9429" y2="5179.4258" gradientTransform="matrix(-0.3946 0.2381 -0.3221 -0.5338 3813.4407 1601.3149)">
				<stop  offset="0" style="stop-color:#F09A6F"/>
				<stop  offset="1" style="stop-color:#D62C69"/>
			</linearGradient>
			<path id="XMLID_6_" class="st14" d="M102,80.4l11.5,22.1c0.3,0.5,0.2,1.1-0.1,1.3l0,0c-0.4,0.2-0.9,0-1.2-0.5L97.6,82.7
				C95.8,79.7,100.2,77.4,102,80.4z"/>
		</g>
	</g>
</g>
<g id="XMLID_34_">
	<g id="XMLID_74_">
		<linearGradient id="XMLID_102_" gradientUnits="userSpaceOnUse" x1="26.4316" y1="171.05" x2="337.9352" y2="103.9841">
			<stop  offset="0" style="stop-color:#E7FFF8"/>
			<stop  offset="0.5856" style="stop-color:#7BE3FC"/>
			<stop  offset="1" style="stop-color:#2ED0FF"/>
		</linearGradient>
		<path id="XMLID_87_" class="st15" d="M225.6,52.7c0,0-37.9,63.1-17.7,90.9c30.6,42.1-1.3,82-98.7,76.4S197.9,47.5,225.6,52.7z"/>
		<linearGradient id="XMLID_103_" gradientUnits="userSpaceOnUse" x1="72.6159" y1="53.8487" x2="321.1793" y2="308.7356">
			<stop  offset="0" style="stop-color:#E7FFF8"/>
			<stop  offset="1" style="stop-color:#2ED0FF"/>
		</linearGradient>
		<path id="XMLID_86_" class="st16" d="M98.6,113.6c88.3,4.1,45.4-62.9,71.2-85.1c23-19.8,77.5-0.9,50.9,36.9
			c-27.3,38.9-39.2,61.3-22.1,87.8s-2.3,59.5-82.4,61.3c-60.2,1.4-97.7-23.9-92.8-57.2C26.3,137,57.2,111.7,98.6,113.6z"/>
		<g id="XMLID_79_">
			<defs>
				<path id="XMLID_80_" d="M98.6,113.6c88.3,4.1,45.4-62.9,71.2-85.1c23-19.8,77.5-0.9,50.9,36.9c-27.3,38.9-39.2,61.3-22.1,87.8
					s-2.3,59.5-82.4,61.3c-60.2,1.4-97.7-23.9-92.8-57.2C26.3,137,57.2,111.7,98.6,113.6z"/>
			</defs>
			<clipPath id="XMLID_104_">
				<use xlink:href="#XMLID_80_"  style="overflow:visible;"/>
			</clipPath>
			<linearGradient id="XMLID_105_" gradientUnits="userSpaceOnUse" x1="127.7992" y1="106.5344" x2="135.1853" y2="326.3817">
				<stop  offset="0" style="stop-color:#A8F3F8"/>
				<stop  offset="1" style="stop-color:#6AB2FF"/>
			</linearGradient>
			<path id="XMLID_84_" class="st17" d="M28.7,214.6c3.6-18.8-3.1-32.5,134.7-29.5c154.5,3.3,11.7,53.3-14.5,50.2
				C122.7,232.2,22.1,249,28.7,214.6z"/>
			<linearGradient id="XMLID_106_" gradientUnits="userSpaceOnUse" x1="216.9037" y1="65.63" x2="224.6865" y2="186.2635">
				<stop  offset="0" style="stop-color:#A8F3F8"/>
				<stop  offset="1" style="stop-color:#6AB2FF"/>
			</linearGradient>
			<path id="XMLID_83_" class="st18" d="M214.9,26c0,0-62.1,48.2-23.7,110.6s63.4-112.8,63.4-112.8S223,18.5,214.9,26z"/>
			<linearGradient id="XMLID_107_" gradientUnits="userSpaceOnUse" x1="195.3517" y1="78.6216" x2="158.0493" y2="-11.343">
				<stop  offset="0" style="stop-color:#A8F3F8"/>
				<stop  offset="1" style="stop-color:#6AB2FF"/>
			</linearGradient>
			<path id="XMLID_82_" class="st19" d="M137.1-49c0,0-35.3,105.6,37.9,105.6c81.1,0-9.3-133.1-9.3-133.1S138.3-60,137.1-49z"/>
			<linearGradient id="XMLID_108_" gradientUnits="userSpaceOnUse" x1="86.0345" y1="175.2358" x2="44.1565" y2="74.2361">
				<stop  offset="0" style="stop-color:#A8F3F8"/>
				<stop  offset="1" style="stop-color:#6AB2FF"/>
			</linearGradient>
			<path id="XMLID_81_" class="st20" d="M22,29.4c0,0-29.8,95.9,39.9,118.2S50.7,1.9,50.7,1.9S23.3,18.5,22,29.4z"/>
		</g>
		<g id="XMLID_77_">
			<defs>
				<path id="XMLID_78_" d="M98.6,113.6c88.3,4.1,45.4-62.9,71.2-85.1c23-19.8,77.5-0.9,50.9,36.9c-27.3,38.9-39.2,61.3-22.1,87.8
					s-2.3,59.5-82.4,61.3c-60.2,1.4-97.7-23.9-92.8-57.2C26.3,137,57.2,111.7,98.6,113.6z"/>
			</defs>
			<clipPath id="XMLID_109_">
				<use xlink:href="#XMLID_78_"  style="overflow:visible;"/>
			</clipPath>
		</g>
		
			<linearGradient id="XMLID_110_" gradientUnits="userSpaceOnUse" x1="387.7978" y1="321.9656" x2="505.2181" y2="444.1707" gradientTransform="matrix(0.9719 -0.2352 0.2352 0.9719 -324.3078 -115.2547)">
			<stop  offset="0" style="stop-color:#F05F6F"/>
			<stop  offset="1" style="stop-color:#9F2C69"/>
		</linearGradient>
		<path id="XMLID_76_" class="st21" d="M116.8,100.2l-6.1,1.5c-2.4,0.6-4.9-0.9-5.5-3.4l0,0c-0.6-2.4,0.9-4.9,3.4-5.5l6.1-1.5
			c2.4-0.6,4.9,0.9,5.5,3.4v0C120.8,97.1,119.2,99.6,116.8,100.2z"/>
		
			<linearGradient id="XMLID_111_" gradientUnits="userSpaceOnUse" x1="1394.4219" y1="-1185.5293" x2="1603.6415" y2="-967.7841" gradientTransform="matrix(0.3259 -7.886282e-002 9.044807e-002 0.3738 -127.3507 620.8689)">
			<stop  offset="0" style="stop-color:#F05F6F"/>
			<stop  offset="1" style="stop-color:#9F2C69"/>
		</linearGradient>
		<path id="XMLID_75_" class="st22" d="M212.4,63.4l-3,0.7c-1.7,0.4-3.4-0.6-3.9-2.4v0c-0.4-1.7,0.6-3.4,2.4-3.9l3-0.7
			c1.7-0.4,3.4,0.6,3.9,2.4v0C215.2,61.3,214.2,63,212.4,63.4z"/>
	</g>
	<g id="XMLID_58_">
		<linearGradient id="XMLID_112_" gradientUnits="userSpaceOnUse" x1="40.5452" y1="63.1124" x2="161.8551" y2="111.5458">
			<stop  offset="0" style="stop-color:#F09A6F"/>
			<stop  offset="1" style="stop-color:#D62C69"/>
		</linearGradient>
		<circle id="XMLID_73_" class="st23" cx="88.9" cy="82.4" r="55.5"/>
		<g id="XMLID_59_">
			<defs>
				<circle id="XMLID_60_" cx="88.9" cy="82.4" r="55.5"/>
			</defs>
			<clipPath id="XMLID_113_">
				<use xlink:href="#XMLID_60_"  style="overflow:visible;"/>
			</clipPath>
			<path id="XMLID_62_" class="st24" d="M113.9,114.4c3.2-8.9,5-19.5,5.1-30.5h25.3V81H119c-0.1-11.5-2.1-22.5-5.5-31.7
				c5.6-1.9,10.8-4.6,15.4-7.8c10.8-7.7,16.8-18,16.8-29.1s-6-21.3-16.8-29.1c-10.7-7.6-24.9-11.8-40-11.8s-29.3,4.2-40,11.8
				c-10.8,7.7-16.8,18-16.8,29.1s6,21.3,16.8,29.1c4.7,3.4,10.1,6.1,16,8c-3.4,9.2-5.3,20-5.4,31.5H33.5v2.9h25.9
				c0.1,10.9,1.9,21.3,5,30.2c-5.8,3.2-11.1,7.6-15.8,13c-10.7,12.5-16.6,29-16.6,46.6s5.9,34.1,16.6,46.6
				c10.7,12.5,25,19.4,40.2,19.4s29.5-6.9,40.2-19.4c10.7-12.5,16.6-29,16.6-46.6s-5.9-34.1-16.6-46.6
				C124.6,121.9,119.5,117.6,113.9,114.4z M111.3,113c-6.5-3.3-13.6-5.1-20.9-5.3V83.9h25.7C115.9,94.5,114.3,104.5,111.3,113z
				 M90.4,135.6v-24.9c7.1,0.2,13.8,2,19.9,5.1c-0.7,1.8-1.5,3.5-2.3,5.1c-5.1,9.9-11.7,15.4-18.7,15.4c-7,0-13.6-5.5-18.7-15.4
				c-0.9-1.7-1.7-3.5-2.4-5.4c6-2.9,12.5-4.7,19.4-4.9v24.9H90.4z M116.1,81H90.4V53.3c7.1-0.1,14-1.2,20.4-3.1
				C114.1,59.1,115.9,69.8,116.1,81z M90.4,28.5c6.6,0.6,12.8,6,17.6,15.4c0.6,1.2,1.1,2.4,1.7,3.6c-6,1.8-12.5,2.8-19.3,2.9V28.5z
				 M87.5,50.4c-6.6-0.1-12.9-1.1-18.7-2.7c0.6-1.3,1.1-2.5,1.8-3.8c4.7-9.1,10.6-14.5,17-15.3V50.4z M35,12.5
				c0-20.9,24.2-38,53.9-38s53.9,17,53.9,38c0,15-12.4,28-30.4,34.2c-0.6-1.4-1.2-2.7-1.9-4c-5.6-11-13.2-17-21.3-17
				s-15.7,6-21.3,17c-0.7,1.4-1.3,2.8-2,4.2C47.7,40.7,35,27.6,35,12.5z M67.7,50.4c6.2,1.8,12.9,2.8,19.8,2.9V81H62.4
				C62.5,69.8,64.3,59.3,67.7,50.4z M62.4,83.9h25.1v23.8c-7.1,0.2-14,1.9-20.4,5C64.1,104.3,62.5,94.3,62.4,83.9z M88.9,236.8
				c-29.7,0-53.9-28.3-53.9-63.1c0-25,12.5-46.6,30.5-56.8c0.7,1.9,1.5,3.6,2.4,5.3c5.6,11,13.2,17,21.3,17s15.7-6,21.3-17
				c0.8-1.6,1.6-3.3,2.3-5c17.8,10.3,30,31.8,30,56.5C142.8,208.5,118.6,236.8,88.9,236.8z"/>
			<linearGradient id="XMLID_114_" gradientUnits="userSpaceOnUse" x1="62.3162" y1="51.3297" x2="197.8674" y2="105.449">
				<stop  offset="0" style="stop-color:#FF002A"/>
				<stop  offset="1" style="stop-color:#940035"/>
			</linearGradient>
			<path id="XMLID_61_" class="st25" d="M66.8,29.5c0,0,69.5,11.3,51.3,100.1c0,0,82.6-25.4,54.3-66.3S96.7-4.1,66.8,29.5z"/>
		</g>
	</g>
	<g id="XMLID_51_">
		<linearGradient id="XMLID_115_" gradientUnits="userSpaceOnUse" x1="136.1087" y1="159.9377" x2="237.302" y2="200.3395">
			<stop  offset="0" style="stop-color:#F09A6F"/>
			<stop  offset="1" style="stop-color:#D62C69"/>
		</linearGradient>
		<path id="XMLID_57_" class="st26" d="M198.3,229.5h-43.7c-5.4,0-9.9-4.4-9.9-9.9v-87.2c0-5.4,4.4-9.9,9.9-9.9h43.7
			c5.4,0,9.9,4.4,9.9,9.9v87.2C208.2,225,203.7,229.5,198.3,229.5z"/>
		<linearGradient id="XMLID_116_" gradientUnits="userSpaceOnUse" x1="147.3472" y1="117.327" x2="233.2175" y2="276.1006">
			<stop  offset="0" style="stop-color:#FFFFFF"/>
			<stop  offset="1" style="stop-color:#FFE8B1"/>
		</linearGradient>
		<path id="XMLID_56_" class="st27" d="M201.6,206.5h-50.3v-68.8c0-4.5,3.6-8.1,8.1-8.1h34.1c4.5,0,8.1,3.6,8.1,8.1V206.5z"/>
		
			<linearGradient id="XMLID_117_" gradientUnits="userSpaceOnUse" x1="8139.9995" y1="-1418.1589" x2="8167.8555" y2="-1407.0374" gradientTransform="matrix(-0.7071 -0.7071 0.7071 -0.7071 6936.8384 4929.8984)">
			<stop  offset="0" style="stop-color:#F09A6F"/>
			<stop  offset="1" style="stop-color:#D62C69"/>
		</linearGradient>
		<path id="XMLID_55_" class="st28" d="M170.5,155l15.6,9.1c2.5,1.4,2.6,5,0.2,6.5l-15.6,10.3c-2.6,1.7-6-0.1-6-3.2v-19.4
			C164.7,155.3,167.9,153.5,170.5,155z"/>
		<g id="XMLID_53_">
			<defs>
				<path id="XMLID_54_" d="M201.6,206.5h-50.3v-51.7c0-13.9,11.3-25.2,25.2-25.2h0c13.9,0,25.2,11.3,25.2,25.2V206.5z"/>
			</defs>
			<clipPath id="XMLID_118_">
				<use xlink:href="#XMLID_54_"  style="overflow:visible;"/>
			</clipPath>
		</g>
		<linearGradient id="XMLID_119_" gradientUnits="userSpaceOnUse" x1="172.3962" y1="211.1751" x2="184.5251" y2="233.6014">
			<stop  offset="0" style="stop-color:#FFFFFF"/>
			<stop  offset="1" style="stop-color:#FFE8B1"/>
		</linearGradient>
		<circle id="XMLID_52_" class="st29" cx="176.4" cy="218.6" r="6.3"/>
	</g>
	<g id="XMLID_43_">
		<path id="XMLID_44_" class="st30" d="M187.5,111.9h-2.4c0-0.5,0-1,0-1.5l2.4-0.1C187.5,110.9,187.5,111.4,187.5,111.9z
			 M184.7,104.9c-0.3-3.4-1-6.8-1.8-10.1l2.3-0.6c0.9,3.4,1.5,7,1.9,10.5L184.7,104.9z M181.3,89.4c-1.1-3.2-2.5-6.4-4.1-9.5
			l2.1-1.1c1.7,3.1,3.1,6.4,4.2,9.8L181.3,89.4z M174.4,75.1c-1.8-2.9-3.9-5.7-6.1-8.3l1.8-1.6c2.3,2.7,4.5,5.6,6.4,8.6L174.4,75.1z
			 M164.5,62.8c-2.4-2.4-5.1-4.7-7.9-6.7l1.4-2c2.9,2.1,5.6,4.4,8.1,6.9L164.5,62.8z M152,53c-2.9-1.8-6-3.4-9.2-4.7l0.9-2.2
			c3.3,1.4,6.5,3,9.5,4.9L152,53z"/>
	</g>
	<g id="XMLID_35_">
		<path id="XMLID_36_" class="st30" d="M120.9,197.3c-3.4,0-6.8-0.2-10.2-0.7l0.3-2.4c3.2,0.5,6.6,0.7,9.8,0.7l0.5,0l0,2.4
			L120.9,197.3z M105,195.5c-3.5-0.8-6.9-1.8-10.2-3.1l0.9-2.3c3.2,1.3,6.5,2.3,9.9,3L105,195.5z M89.6,190.1
			c-3.2-1.6-6.3-3.4-9.2-5.4l1.4-2c2.8,1.9,5.8,3.7,8.9,5.2L89.6,190.1z M75.7,181.3c-2.8-2.2-5.4-4.7-7.7-7.3l1.8-1.6
			c2.3,2.5,4.8,4.9,7.5,7.1L75.7,181.3z M64.3,169.5c-2.2-2.8-4.1-5.8-5.9-8.9l2.1-1.2c1.7,3,3.6,5.9,5.7,8.6L64.3,169.5z
			 M55.9,155.5c-0.2-0.5-0.4-0.9-0.6-1.4l2.2-1c0.2,0.5,0.4,0.9,0.6,1.4L55.9,155.5z"/>
	</g>
</g>
</svg>
