<?xml version="1.0" encoding="utf-8"?>
<!-- Generator: Adobe Illustrator 19.0.0, SVG Export Plug-In . SVG Version: 6.00 Build 0)  -->
<svg version="1.1" id="Layer_1" xmlns="http://www.w3.org/2000/svg" xmlns:xlink="http://www.w3.org/1999/xlink" x="0px" y="0px"
	 viewBox="0 0 35 35" style="enable-background:new 0 0 35 35;" xml:space="preserve">
<style type="text/css">
	.st0{fill:url(#XMLID_6_);}
</style>
<g id="XMLID_4_">
	<linearGradient id="XMLID_6_" gradientUnits="userSpaceOnUse" x1="23.8354" y1="19.4658" x2="47.1356" y2="43.8821">
		<stop  offset="0" style="stop-color:#F05F6F"/>
		<stop  offset="1" style="stop-color:#9F2C69"/>
	</linearGradient>
	<path id="XMLID_5_" class="st0" d="M0.5,18.8c-0.3-0.3-0.4-0.7-0.4-0.9c0-0.3,0.1-0.7,0.4-0.9l1.9-1.9c0.5-0.5,1.3-0.5,1.9,0
		l0.1,0.1l7.4,7.9c0.3,0.3,0.7,0.3,0.9,0L30.6,4.5h0.1c0.5-0.5,1.3-0.5,1.9,0l1.9,1.9c0.5,0.5,0.5,1.3,0,1.9L13.1,30.5
		c-0.3,0.3-0.5,0.4-0.9,0.4s-0.7-0.1-0.9-0.4L0.8,19.2L0.5,18.8z M0.5,18.8"/>
</g>
</svg>
